<svg preserveAspectRatio="none" overflow="visible" style="display: block;" width="12.8391" height="16.8171" viewBox="0 0 12.8391 16.8171" fill="none" xmlns="http://www.w3.org/2000/svg">
<path id="Union" d="M12.2378 0.0403019C12.4868 -0.0793447 12.8391 0.0736437 12.8391 0.416482V10.3996C12.8391 10.5099 12.7953 10.6158 12.7173 10.6938L6.71834 16.6927C6.62869 16.7823 6.52234 16.8194 6.41953 16.817C6.31674 16.8194 6.21043 16.7823 6.12081 16.6927L0.121873 10.6938C0.0438628 10.6158 4.29922e-06 10.5099 0 10.3996V0.416482C8.27323e-07 0.0686643 0.362613 -0.0837172 0.612071 0.0457184C0.641913 0.0580793 0.670438 0.0751156 0.69648 0.0969952L6.4356 4.919L12.1517 0.092662C12.1782 0.0702492 12.2073 0.0527936 12.2378 0.0403019ZM0.836678 10.4935L5.82326 15.48L3.20191 8.49637L0.836678 10.4935ZM7.01589 15.48L12.0307 10.4651L9.64924 8.46423L7.01589 15.48ZM3.72668 8.0532L6.41953 15.2272L9.12375 8.02269L6.43668 5.76507L3.72668 8.0532ZM0.647099 9.80663L2.96051 7.85324L0.647099 1.68992V9.80663ZM9.89037 7.82164L12.192 9.75545V1.68992L9.89037 7.82164ZM3.48529 7.41008L5.93393 5.34266L1.22396 1.38541L3.48529 7.41008ZM6.93834 5.3414L9.36487 7.3801L11.6111 1.3958L6.93834 5.3414Z" fill="#F5F3EF"/>
</svg>
